<mxfile host="app.diagrams.net" modified="2023-05-15T21:07:04.378Z" agent="Mozilla/5.0 (X11; Ubuntu; Linux x86_64; rv:109.0) Gecko/20100101 Firefox/113.0" etag="08CVMKFLtMZLW52MYIqx" version="21.3.1" type="device">
  <diagram name="Page-1" id="N6kxrhefns0E2QWnXthw">
    <mxGraphModel dx="1390" dy="766" grid="0" gridSize="10" guides="1" tooltips="1" connect="1" arrows="1" fold="1" page="1" pageScale="1" pageWidth="1600" pageHeight="900" background="#27262b" math="0" shadow="0">
      <root>
        <mxCell id="0" />
        <mxCell id="1" parent="0" />
        <mxCell id="uCiZX_TGuEFDP9uTmNpH-5" value="&lt;font color=&quot;#ffffff&quot;&gt;&lt;b&gt;FIND&lt;/b&gt;&lt;/font&gt;" style="rounded=1;whiteSpace=wrap;html=1;fillColor=#76608a;strokeColor=#432D57;fontColor=#ffffff;rotation=0;" vertex="1" parent="1">
          <mxGeometry x="553" y="230" width="200" height="23" as="geometry" />
        </mxCell>
        <mxCell id="uCiZX_TGuEFDP9uTmNpH-6" value="&lt;b&gt;GET&lt;/b&gt;" style="rounded=1;whiteSpace=wrap;html=1;fillColor=#647687;strokeColor=#314354;fontColor=#ffffff;rotation=0;" vertex="1" parent="1">
          <mxGeometry x="573" y="287" width="120" height="23" as="geometry" />
        </mxCell>
        <mxCell id="uCiZX_TGuEFDP9uTmNpH-27" value="" style="shape=flexArrow;endArrow=classic;html=1;rounded=0;width=4.4;endSize=5.068;endWidth=17.84;fillColor=#647687;strokeColor=#314354;entryX=0.25;entryY=0;entryDx=0;entryDy=0;" edge="1" parent="1">
          <mxGeometry width="50" height="50" relative="1" as="geometry">
            <mxPoint x="690" y="310" as="sourcePoint" />
            <mxPoint x="690.25" y="387" as="targetPoint" />
          </mxGeometry>
        </mxCell>
        <mxCell id="uCiZX_TGuEFDP9uTmNpH-28" value="" style="shape=flexArrow;endArrow=classic;html=1;rounded=0;width=4.4;endSize=5.068;endWidth=17.84;fillColor=#76608a;strokeColor=#432D57;" edge="1" parent="1">
          <mxGeometry width="50" height="50" relative="1" as="geometry">
            <mxPoint x="750" y="253" as="sourcePoint" />
            <mxPoint x="751" y="330" as="targetPoint" />
          </mxGeometry>
        </mxCell>
        <mxCell id="uCiZX_TGuEFDP9uTmNpH-32" value="&lt;div align=&quot;center&quot;&gt;&lt;font color=&quot;#ffffff&quot;&gt;Response&lt;br&gt;&lt;/font&gt;&lt;/div&gt;" style="text;html=1;strokeColor=none;fillColor=none;align=center;verticalAlign=middle;whiteSpace=wrap;rounded=0;" vertex="1" parent="1">
          <mxGeometry x="658" y="380" width="65" height="28" as="geometry" />
        </mxCell>
        <mxCell id="uCiZX_TGuEFDP9uTmNpH-33" value="&lt;div align=&quot;center&quot;&gt;&lt;font color=&quot;#ffffff&quot;&gt;Response&lt;br&gt;&lt;/font&gt;&lt;/div&gt;" style="text;html=1;strokeColor=none;fillColor=none;align=center;verticalAlign=middle;whiteSpace=wrap;rounded=0;" vertex="1" parent="1">
          <mxGeometry x="718" y="322" width="65" height="28" as="geometry" />
        </mxCell>
        <mxCell id="uCiZX_TGuEFDP9uTmNpH-34" value="&lt;b&gt;Executor&lt;/b&gt;" style="text;html=1;strokeColor=none;fillColor=#76608a;align=center;verticalAlign=middle;whiteSpace=wrap;rounded=0;fontColor=#ffffff;" vertex="1" parent="1">
          <mxGeometry x="482" y="222.25" width="71" height="38.5" as="geometry" />
        </mxCell>
        <mxCell id="uCiZX_TGuEFDP9uTmNpH-35" value="&lt;b&gt;Executor&lt;/b&gt;" style="text;html=1;strokeColor=#314354;fillColor=#647687;align=center;verticalAlign=middle;whiteSpace=wrap;rounded=0;fontColor=#ffffff;" vertex="1" parent="1">
          <mxGeometry x="482" y="279.25" width="71" height="38.5" as="geometry" />
        </mxCell>
        <mxCell id="uCiZX_TGuEFDP9uTmNpH-36" value="" style="rounded=1;whiteSpace=wrap;html=1;fillColor=#647687;strokeColor=none;fontColor=#ffffff;rotation=0;" vertex="1" parent="1">
          <mxGeometry x="551" y="293.5" width="36" height="10" as="geometry" />
        </mxCell>
      </root>
    </mxGraphModel>
  </diagram>
</mxfile>
